<svg width="18" height="18" viewBox="0 0 18 18" fill="none" xmlns="http://www.w3.org/2000/svg">
<g clip-path="url(#clip0_1061_2467)">
<path d="M13.125 0.687744C12.2804 0.70088 11.4543 0.936634 10.73 1.3712C10.0058 1.80576 9.40899 2.42375 8.99997 3.16274C8.59095 2.42375 7.99417 1.80576 7.2699 1.3712C6.54562 0.936634 5.71951 0.70088 4.87497 0.687744C3.52867 0.746237 2.26025 1.33518 1.34681 2.32592C0.433363 3.31665 -0.0508442 4.62864 -3.1282e-05 5.97524C-3.1282e-05 11.0565 8.21697 16.9252 8.56647 17.1742L8.99997 17.481L9.43347 17.1742C9.78297 16.9267 18 11.0565 18 5.97524C18.0508 4.62864 17.5666 3.31665 16.6531 2.32592C15.7397 1.33518 14.4713 0.746237 13.125 0.687744Z" fill="#919191"/>
</g>
<defs>
<clipPath id="clip0_1061_2467">
<rect width="18" height="18" fill="white"/>
</clipPath>
</defs>
</svg>
