<svg width="69" height="72" viewBox="0 0 69 72" fill="none" xmlns="http://www.w3.org/2000/svg">
<g filter="url(#filter0_d_1061_2502)">
<rect x="17" y="20" width="32" height="32" rx="8" fill="#3A3A3A"/>
</g>
<g clip-path="url(#clip0_1061_2502)">
<path d="M31.0049 35.0948C30.2913 34.1938 29.938 33.0598 30.0135 31.9129C30.089 30.766 30.5881 29.6881 31.4137 28.8885L31.8884 28.413C32.6881 27.5877 33.7659 27.089 34.9126 27.0136C36.0593 26.9382 37.1931 27.2915 38.0939 28.005C38.5758 28.4046 38.9681 28.9011 39.2454 29.4623C39.5227 30.0235 39.6788 30.6368 39.7034 31.2623C39.7298 31.885 39.6267 32.5065 39.4007 33.0875C39.1746 33.6684 38.8306 34.1961 38.3902 34.6373L37.6402 35.3873C36.7949 36.2307 35.6498 36.7048 34.4557 36.7058C34.3912 36.7058 34.3267 36.7043 34.2622 36.7013C33.637 36.6768 33.0239 36.5211 32.4627 36.2444C31.9016 35.9676 31.4049 35.5759 31.0049 35.0948ZM38.0677 39C37.5512 38.9988 37.0396 39.0999 36.5624 39.2975C36.0852 39.4951 35.6519 39.7853 35.2874 40.1513C34.2285 41.2163 32.9687 42.0607 31.5812 42.6355C30.1936 43.2103 28.7058 43.5042 27.2039 43.5H26.3414C26.175 43.5003 26.0123 43.4511 25.8738 43.3588C25.7353 43.2665 25.6274 43.1351 25.5636 42.9814C25.4998 42.8277 25.4831 42.6585 25.5156 42.4953C25.548 42.3321 25.6282 42.1821 25.7459 42.0645L26.2709 41.5395C27.5731 41.4521 28.7992 40.8945 29.7209 39.9705L32.0114 37.68C31.1796 37.3104 30.4428 36.7565 29.8567 36.06C29.5291 35.6673 29.2562 35.2321 29.0452 34.7663L26.7749 37.0343C25.8506 37.9558 25.293 39.182 25.2059 40.4843L24.6809 41.0093C24.355 41.3372 24.1335 41.7543 24.0444 42.208C23.9553 42.6617 24.0025 43.1316 24.1801 43.5585C24.3577 43.9854 24.6578 44.3501 25.0424 44.6066C25.4271 44.8632 25.8791 45 26.3414 45H27.2039C28.9028 45.0046 30.5857 44.6723 32.1553 44.0221C33.7249 43.372 35.1499 42.417 36.3479 41.2125C36.688 40.8724 37.1213 40.6408 37.5931 40.547C38.0648 40.4531 38.5537 40.5012 38.9981 40.6852C39.4425 40.8692 39.8223 41.1808 40.0896 41.5806C40.357 41.9804 40.4997 42.4506 40.4999 42.9315V44.25C40.4999 44.4489 40.579 44.6397 40.7196 44.7803C40.8603 44.921 41.051 45 41.2499 45C41.4488 45 41.6396 44.921 41.7803 44.7803C41.9209 44.6397 41.9999 44.4489 41.9999 44.25V42.9315C41.9985 41.8891 41.5838 40.8898 40.8466 40.1528C40.1095 39.4158 39.1101 39.0012 38.0677 39Z" fill="#E8E8E8"/>
</g>
<defs>
<filter id="filter0_d_1061_2502" x="-3" y="0" width="72" height="72" filterUnits="userSpaceOnUse" color-interpolation-filters="sRGB">
<feFlood flood-opacity="0" result="BackgroundImageFix"/>
<feColorMatrix in="SourceAlpha" type="matrix" values="0 0 0 0 0 0 0 0 0 0 0 0 0 0 0 0 0 0 127 0" result="hardAlpha"/>
<feOffset/>
<feGaussianBlur stdDeviation="10"/>
<feComposite in2="hardAlpha" operator="out"/>
<feColorMatrix type="matrix" values="0 0 0 0 0 0 0 0 0 0 0 0 0 0 0 0 0 0 0.1 0"/>
<feBlend mode="normal" in2="BackgroundImageFix" result="effect1_dropShadow_1061_2502"/>
<feBlend mode="normal" in="SourceGraphic" in2="effect1_dropShadow_1061_2502" result="shape"/>
</filter>
<clipPath id="clip0_1061_2502">
<rect width="18" height="18" fill="white" transform="translate(24 27)"/>
</clipPath>
</defs>
</svg>
