<svg width="69" height="72" viewBox="0 0 69 72" fill="none" xmlns="http://www.w3.org/2000/svg">
<g filter="url(#filter0_d_1061_2492)">
<rect x="17" y="20" width="32" height="32" rx="8" fill="#3A3A3A"/>
</g>
<g clip-path="url(#clip0_1061_2492)">
<path d="M30.7493 36C33.2344 36 35.2489 33.9855 35.2489 31.5004C35.2489 29.0154 33.2344 27.0008 30.7493 27.0008C28.2643 27.0008 26.2498 29.0154 26.2498 31.5004C26.2498 33.9855 28.2643 36 30.7493 36Z" fill="#E8E8E8"/>
<path d="M30.7494 37.4998C27.0237 37.5044 24.0045 40.5235 24 44.2492C24 44.6634 24.3357 44.9991 24.7499 44.9991H36.7488C37.163 44.9991 37.4987 44.6634 37.4987 44.2492C37.4942 40.5235 34.4751 37.5044 30.7494 37.4998Z" fill="#E8E8E8"/>
<path d="M40.4986 32.9065C39.6297 32.9498 38.9592 33.6873 38.9987 34.5564C39.0382 33.6873 38.3678 32.9498 37.4988 32.9065C36.63 32.9498 35.9595 33.6873 35.999 34.5564C35.999 35.8538 37.6908 37.3739 38.5338 38.0503C38.8055 38.2679 39.1919 38.2679 39.4637 38.0503C40.3066 37.3754 41.9984 35.8538 41.9984 34.5564C42.0379 33.6873 41.3675 32.9498 40.4986 32.9065Z" fill="#E8E8E8"/>
</g>
<defs>
<filter id="filter0_d_1061_2492" x="-3" y="0" width="72" height="72" filterUnits="userSpaceOnUse" color-interpolation-filters="sRGB">
<feFlood flood-opacity="0" result="BackgroundImageFix"/>
<feColorMatrix in="SourceAlpha" type="matrix" values="0 0 0 0 0 0 0 0 0 0 0 0 0 0 0 0 0 0 127 0" result="hardAlpha"/>
<feOffset/>
<feGaussianBlur stdDeviation="10"/>
<feComposite in2="hardAlpha" operator="out"/>
<feColorMatrix type="matrix" values="0 0 0 0 0 0 0 0 0 0 0 0 0 0 0 0 0 0 0.1 0"/>
<feBlend mode="normal" in2="BackgroundImageFix" result="effect1_dropShadow_1061_2492"/>
<feBlend mode="normal" in="SourceGraphic" in2="effect1_dropShadow_1061_2492" result="shape"/>
</filter>
<clipPath id="clip0_1061_2492">
<rect width="18" height="18" fill="white" transform="translate(24 27)"/>
</clipPath>
</defs>
</svg>
